# xmcd CD database file
#
# Track frame offsets:
#	180
#	20128
#	37579
#	48375
#	64147
#	87376
#	98549
#	116476
#	133200
#	149176
#
# Disc length: 2220 seconds
#
# Revision: 0
# Processed by: cddbd v1.4PL0 Copyright (c) Steve Scherf et al.
# Submitted via: Feurio! 1.66 - http://www.feurio.com
#
DISCID=8c08aa0a
DTITLE=Gram Parsons - Grievous Angel  (with Emmylou Harris)
DYEAR=1974
DGENRE=Country
TTITLE0=Return of the Grievous Angel
TTITLE1=Hearts on Fire
TTITLE2=I Can't Dance
TTITLE3=Brass Buttons
TTITLE4=$1000 Wedding
TTITLE5=Cash On The Barrelhead (live)
TTITLE6=Hickory Wind (live)
TTITLE7=Love Hurts
TTITLE8=Las Vegas
TTITLE9=In My Hour of Darkness
EXTD=(c)1974 Reprise Records/Warner Bros USA, MS 2171\r\n(p) by Gram Parsons  
EXTD=\r\n
EXTT0=Songwriter: Gram Parsons\r\n
EXTT1=Songwriter: Tom Guidera and Walter Egan\r\n
EXTT2=Songwriter: Tom T. Hall\r\n
EXTT3=Songwriter: Gram Parsons\r\n
EXTT4=Songwriter: Gram Parsons\r\n
EXTT5=Songwriter: Ira and Charlie Louvin\r\n
EXTT6=Songwriter: Gram Parsons and Bob Buchanon\r\n
EXTT7=Songwriter: Boudleaux Bryant\r\n
EXTT8=Songwriter: Gram Parsons and Rik Grech\r\n
EXTT9=Songwriter: Gram Parsons and Emmylou Harris\r\n
PLAYORDER=
